<?xml version="1.0" encoding="utf-8"?>
<!-- Generator: Adobe Illustrator 18.0.0, SVG Export Plug-In . SVG Version: 6.00 Build 0)  -->
<!DOCTYPE svg PUBLIC "-//W3C//DTD SVG 1.1//EN" "http://www.w3.org/Graphics/SVG/1.1/DTD/svg11.dtd">
<svg version="1.1" id="Capa_1" xmlns="http://www.w3.org/2000/svg" xmlns:xlink="http://www.w3.org/1999/xlink" x="0px" y="0px"
	 viewBox="0 0 1000 498" enable-background="new 0 0 1000 498" xml:space="preserve">
<g>
	<g>
		<g>
			<path fill="#F0D632" d="M813,111.9c-75.7,0-137.1,61.4-137.1,137.1S737.2,386.1,813,386.1S950,324.7,950,249
				S888.7,111.9,813,111.9z M811,296.7c-2.9,6-7,10.8-12.1,14.4c-5.1,3.6-11.4,5.8-18.9,6.6c-4.7,0.5-16,0.8-33.9,0.9h-26.2
				c-3.4,0-5.5-3.8-3.7-6.7l7.1-11.3c2.2-3.4,5.9-5.5,10-5.5h19.5c10.1,0,16.6-0.3,19.3-0.9c4.2-0.8,7.6-2.6,10.2-5.6
				c2.6-2.9,3.9-6.9,3.9-11.8c0-4.2-1-7.7-3-10.6c-2-2.9-5-5-8.8-6.4c-3.8-1.3-12.2-2-25-2H747v24.3c0,2.6-2.8,4.8-6.2,4.8h-13.2
				c-0.4,0-0.7-0.3-0.7-0.6v-76.5c0-0.3,0.1-0.5,0.3-0.5h11.8c4.5,0,8.1,2.8,8.1,6.2v19.1c9.9,0,16.2-0.2,18.7-0.5
				c4.8-0.6,8.6-2.2,11.4-5c2.8-2.8,4.1-6.4,4.1-10.9c0-4.3-1.2-7.8-3.6-10.5c-2.4-2.7-5.9-4.3-10.6-4.9c-2.8-0.3-10.8-0.5-24-0.5
				h-9.2c-4.3,0-8.3-2.2-10.6-5.9l-6.7-10.7c-1.8-2.9,0.3-6.7,3.7-6.7h34.2c11,0,19.2,0.5,24.7,1.4c5.4,0.9,10.3,2.8,14.5,5.7
				c4.3,2.9,7.8,6.8,10.7,11.7c2.8,4.8,4.3,10.3,4.3,16.3c0,6.5-1.8,12.5-5.3,18c-2.1,3.2-4.6,5.9-7.5,8.2c-2.4,1.9-2.1,5.6,0.7,7
				c4.9,2.4,8.9,5.7,12.1,9.7c4.6,6,6.8,13,6.8,21C815.4,284.5,813.9,290.7,811,296.7z"/>
			<path d="M861.3,237.2"/>
			<path fill="#19486A" d="M815.4,278.2c0,6.3-1.5,12.5-4.4,18.5c-2.9,6-7,10.8-12.1,14.4c-5.1,3.6-11.4,5.8-18.9,6.6
				c-4.7,0.5-16,0.8-33.9,0.9h-26.2c-3.4,0-5.5-3.8-3.7-6.7l7.1-11.3c2.2-3.4,5.9-5.5,10-5.5h19.5c10.1,0,16.6-0.3,19.3-0.9
				c4.2-0.8,7.6-2.6,10.2-5.6c2.6-2.9,3.9-6.9,3.9-11.8c0-4.2-1-7.7-3-10.6c-2-2.9-5-5-8.8-6.4c-3.8-1.3-12.2-2-25-2H747v24.3
				c0,2.6-2.8,4.8-6.2,4.8h-13.2c-0.4,0-0.7-0.3-0.7-0.6v-76.5c0-0.3,0.1-0.5,0.3-0.5h11.8c4.5,0,8.1,2.8,8.1,6.2v19.1
				c9.9,0,16.2-0.2,18.7-0.5c4.8-0.6,8.6-2.2,11.4-5c2.8-2.8,4.1-6.4,4.1-10.9c0-4.3-1.2-7.8-3.6-10.5c-2.4-2.7-5.9-4.3-10.6-4.9
				c-2.8-0.3-10.8-0.5-24-0.5h-9.2c-4.3,0-8.3-2.2-10.6-5.9l-6.7-10.7c-1.8-2.9,0.3-6.7,3.7-6.7h34.2c11,0,19.2,0.5,24.7,1.4
				c5.4,0.9,10.3,2.8,14.5,5.7c4.3,2.9,7.8,6.8,10.7,11.7c2.8,4.8,4.3,10.3,4.3,16.3c0,6.5-1.8,12.5-5.3,18
				c-2.1,3.2-4.6,5.9-7.5,8.2c-2.4,1.9-2.1,5.6,0.7,7c4.9,2.4,8.9,5.7,12.1,9.7C813.1,263.2,815.4,270.2,815.4,278.2z"/>
			<g>
				<path fill="#19486A" d="M920.1,222.3c0,8.5-1.6,15.7-4.7,21.5c-3.1,5.8-7,10.4-11.8,13.7c-4.8,3.3-9.6,5.5-14.5,6.6
					c-6.7,1.4-16.4,2-29.1,2h-3.4v20.8h0v24.8c0,3.8-3.1,6.8-6.8,6.8h-14.5c-3.7,0-6.7-3-6.7-6.7v-65c0-2.4,1.9-4.3,4.3-4.3H857
					c11.1,0,18.4-0.7,22.2-2.2c3.7-1.4,6.6-3.7,8.8-6.8c2.1-3.1,3.2-6.7,3.2-10.8c0-5.1-1.5-9.2-4.5-12.5c-3-3.3-6.7-5.4-11.3-6.2
					c-3.3-0.6-10.1-0.9-20.2-0.9h-20.1c-4.1,0-7.9-2.1-10.1-5.6l-4.2-6.6l-2.9-4.7c-1.8-2.9,0.3-6.7,3.7-6.7l30.6,0
					c0.1,0,0.2,0,0.4,0l6,0c17,0,28.2,0.7,33.3,2.1c8,2.1,14.6,6.6,20,13.6C917.4,202.2,920.1,211.2,920.1,222.3z"/>
			</g>
		</g>
	</g>
</g>
<g>
	<path fill="#F0D632" d="M600.1,112.1H70.3c-11.1,0-20.2,9-20.2,20.2v233.5c0,11.1,9,20.2,20.2,20.2h529.7c11.1,0,20.2-9,20.2-20.2
		V132.3C620.2,121.1,611.2,112.1,600.1,112.1z M618.3,365.7c0,10.1-8.2,18.3-18.3,18.3H70.3c-10.1,0-18.3-8.2-18.3-18.3V132.3
		c0-10.1,8.2-18.3,18.3-18.3h529.7c10.1,0,18.3,8.2,18.3,18.3V365.7z"/>
	<path fill="#F0D632" d="M618.3,132.3v233.5c0,10.1-8.2,18.3-18.3,18.3H70.3c-10.1,0-18.3-8.2-18.3-18.3V132.3
		c0-10.1,8.2-18.3,18.3-18.3h529.7C610.1,114,618.3,122.2,618.3,132.3z"/>
	<g>
		
			<text transform="matrix(1.012 0 0 1 313.0279 212.2946)" fill="#19486A" font-family="'Calibri-Bold'" font-size="71.8642" letter-spacing="16.8">Global</text>
	</g>
	<text transform="matrix(0.9762 0 0 1 311.2042 276.7784)" fill="#19486A" font-family="'Calibri-Bold'" font-size="74.0945">Redpyme</text>
	<g>
		<g>
			<path fill="#19486A" d="M100.2,319.2C100.2,319.2,100.2,319.2,100.2,319.2L100.2,319.2L100.2,319.2z M98.6,326.3L98.6,326.3
				L98.6,326.3C98.6,326.3,98.6,326.3,98.6,326.3z"/>
			<path fill="#19486A" d="M157.2,163v59.7H99.8c-1.4-2.8-3.9-5.1-6.9-6.2c11.1-26.4,33.2-47.1,60.5-56.4
				C154.5,161.3,155.8,162.3,157.2,163z"/>
			<path fill="#19486A" d="M278.8,216.4c-3,1.1-5.5,3.4-7,6.3h-58v-59.7c1.5-0.8,2.9-1.8,4-3.1C245.3,169.1,267.6,189.9,278.8,216.4
				z"/>
			<path fill="#19486A" d="M281.6,282.8c-3.5-1-6.4-3.4-8-6.6H244c-0.1,0-0.2,0-0.3,0h-36.1c-0.7,0-1.2,0.6-1.2,1.2v52.5
				c0,0.7,0.6,1.2,1.2,1.2h25.5c0.1,0,0.2,0,0.3,0c0.3-0.1,0.6-0.3,0.8-0.6c2.2-3.5,6.1-5.9,10.5-5.9c3.5,0,6.7,1.5,8.9,3.9
				c0.2,0.2,0.4,0.3,0.6,0.3c0.4,0.1,0.8,0,1.2-0.3c12.6-12,22.1-27.1,27.2-44.2C282.7,283.6,282.3,282.9,281.6,282.8z M126.1,272.9
				h-24.4c-0.5,0-1,0.3-1.2,0.8c-1.5,4.5-5.4,8-10.3,8.8c-0.8,0.1-1.2,0.8-1,1.6c5.8,19.5,17.3,36.6,32.6,49.2
				c0.5,0.4,1.3,0.4,1.7-0.1c0.9-1,2-1.9,3.2-2.6c0.4-0.2,0.7-0.6,0.7-1.1v-55.3C127.3,273.5,126.7,272.9,126.1,272.9z M285.8,242.6
				c-0.1-0.7-0.7-1.1-1.3-1.1c-0.4,0-0.7,0.1-1.1,0.1c-4.8,0-9-2.6-11.2-6.5c-0.2-0.4-0.6-0.6-1.1-0.6h-67.8c-0.7,0-1.2-0.6-1.2-1.2
				v-69.6c0-0.5-0.3-0.8-0.6-1.1c-2.7-1.6-4.8-4.2-5.8-7.3v0c-3.2-0.3-6.4-0.5-9.7-0.5c-3.2,0-6.5,0.2-9.6,0.4
				c-0.5,0.1-0.9,0.4-1,0.8c-1.1,2.8-3.1,5.1-5.6,6.6c-0.4,0.2-0.6,0.6-0.6,1.1v69.5c0,0.7-0.6,1.2-1.2,1.2h-67.2
				c-0.4,0-0.8,0.3-1.1,0.6c-2.3,3.9-6.5,6.5-11.2,6.5c-0.3,0-0.6,0-1,0c-0.7,0-1.2,0.4-1.3,1.1c-0.5,4.2-0.8,8.5-0.8,12.9
				c0,0,0,0,0,0c0,0.8,0.7,1.3,1.4,1.2c0.5-0.1,1.1-0.1,1.6-0.1c5,0,9.4,2.9,11.6,7.1h77c0.7,0,1.2,0.6,1.2,1.3v9.3
				c0,0.7-0.6,1.2-1.2,1.2h-36.4c-0.7,0-1.2,0.5-1.2,1.2v15.7c0,0.7,0.6,1.2,1.2,1.2h27.5c0.7,0,1.2,0.6,1.2,1.2v9.3
				c0,0.7-0.6,1.3-1.2,1.3h-27.5c-0.7,0-1.2,0.5-1.2,1.2v22.7c0,0.5,0.3,0.9,0.6,1.1c3.9,2.3,6.5,6.5,6.5,11.2
				c0,1.7-0.3,3.2-0.9,4.7c-0.2,0.6,0.1,1.3,0.7,1.6c12.2,5.3,25.8,8.2,40,8.2c17.3,0,33.6-4.4,47.8-12.1c-0.3-0.4-0.5-0.9-0.7-1.4
				h-37.1c-0.7,0-1.2-0.6-1.2-1.2v-76c0-0.7,0.6-1.2,1.2-1.2h77.8c2.1-4.2,6.5-7.1,11.6-7.1h0.2c0.7,0,1.3-0.5,1.3-1.2v-0.5
				C286.6,251.1,286.4,246.8,285.8,242.6z"/>
			<path fill="#19486A" d="M293.5,270.3c0,4.6-3.8,8.4-8.4,8.4c-0.4,0-0.8,0-1.2-0.1c-2.9-0.4-5.4-2.4-6.5-5c-0.4-1-0.7-2.1-0.7-3.2
				c0-1.1,0.2-2.3,0.7-3.2c1.3-3,4.2-5.1,7.7-5.1c0.4,0,0.8,0,1.2,0.1C290.4,262.6,293.5,266.1,293.5,270.3z"/>
			<path fill="#19486A" d="M96.5,269.7c0,1.1-0.2,2.3-0.7,3.2c-1.3,3-4.2,5.1-7.7,5.1c-0.2,0-0.3,0-0.5,0c-3.2-0.2-6-2.2-7.2-5.1
				c-0.4-1-0.7-2.1-0.7-3.2c0-1.1,0.2-2.3,0.7-3.2c0.9-2.1,2.7-3.8,4.9-4.6c0.9-0.3,1.8-0.5,2.8-0.5c3.5,0,6.4,2.1,7.7,5.1
				C96.3,267.4,96.5,268.5,96.5,269.7z"/>
			<path fill="#19486A" d="M82.3,234.5h-0.4V234C82,234.2,82.2,234.3,82.3,234.5z"/>
			<path fill="#19486A" d="M82.3,222.7c-0.1,0.1-0.3,0.3-0.4,0.5v-0.5H82.3z"/>
			<path fill="#19486A" d="M252.3,337c0,4.3-3.5,7.7-7.7,7.7c-1.9,0-3.6-0.7-5-1.8c-0.5-0.4-0.9-0.8-1.2-1.3
				c-0.9-1.3-1.5-2.8-1.5-4.5c0-2.3,1.1-4.5,2.7-5.9c1.4-1.1,3.1-1.8,5-1.8c2.6,0,4.9,1.3,6.3,3.2
				C251.8,333.8,252.3,335.3,252.3,337z"/>
			<path fill="#19486A" d="M254.1,328.8c-0.2-0.1-0.4-0.2-0.6-0.3c-2.3-2.4-5.4-3.9-8.9-3.9c-4.4,0-8.3,2.3-10.5,5.9
				c-0.2,0.3-0.5,0.5-0.8,0.6c0.7-1.3,1.7-2.5,2.9-3.5c2.3-1.9,5.2-3.1,8.3-3.1C248.4,324.5,251.8,326.2,254.1,328.8z"/>
			<path fill="#19486A" d="M140.9,341.8c0,4.3-3.5,7.7-7.7,7.7c-1.9,0-3.6-0.7-5-1.8c-0.5-0.4-0.9-0.8-1.2-1.3
				c-0.9-1.3-1.5-2.8-1.5-4.5c0-2.3,1.1-4.5,2.7-5.9c1.4-1.1,3.1-1.8,5-1.8c2.6,0,4.9,1.3,6.3,3.2
				C140.3,338.6,140.9,340.1,140.9,341.8z"/>
			<path fill="#19486A" d="M171.5,151.4c0,1.7-0.5,3.3-1.4,4.6c-0.2,0.2-0.3,0.5-0.5,0.7c-0.1,0.1-0.1,0.2-0.2,0.2
				c-0.1,0.1-0.2,0.3-0.4,0.4c-0.4,0.4-0.9,0.8-1.4,1.1c-0.1,0.1-0.3,0.2-0.4,0.3c-0.3,0.1-0.5,0.3-0.8,0.4
				c-0.1,0.1-0.2,0.1-0.4,0.1c-0.1,0-0.2,0.1-0.4,0.1c-0.3,0.1-0.5,0.1-0.8,0.2c-0.2,0-0.3,0.1-0.5,0.1c0,0,0,0-0.1,0
				c-0.1,0-0.2,0-0.3,0c-0.3,0-0.6,0-0.8,0c-1.6,0-3.1-0.5-4.4-1.3c-0.2-0.1-0.3-0.2-0.5-0.3c-0.1-0.1-0.3-0.2-0.4-0.3
				c-0.2-0.2-0.4-0.4-0.6-0.5c-0.1,0-0.1-0.1-0.2-0.2c-0.1-0.1-0.2-0.3-0.3-0.4c-0.4-0.5-0.8-1-1.1-1.6c-0.1-0.1-0.1-0.2-0.1-0.3
				c-0.1-0.1-0.1-0.2-0.2-0.4c-0.1-0.2-0.1-0.3-0.2-0.5c-0.1-0.4-0.2-0.7-0.3-1.1c0-0.1-0.1-0.3-0.1-0.4c-0.1-0.4-0.1-0.8-0.1-1.1
				c0-4.6,3.8-8.4,8.4-8.4C167.7,143,171.5,146.8,171.5,151.4z"/>
			<path fill="#19486A" d="M216.4,151.4c0,2.4-1,4.6-2.6,6.1c-0.4,0.3-0.7,0.6-1.1,0.9c-1.3,0.9-2.9,1.4-4.6,1.4c-2.3,0-4.5-1-6-2.5
				c-0.4-0.4-0.7-0.8-1-1.3h0c-0.8-1.3-1.3-2.9-1.3-4.5c0-4.6,3.8-8.4,8.4-8.4C212.6,143,216.4,146.8,216.4,151.4z"/>
			<path fill="#19486A" d="M291.7,228.6c0,4.1-2.9,7.5-6.8,8.2c-0.5,0.1-1,0.1-1.5,0.1c-2.3,0-4.4-1-5.9-2.5
				c-1.5-1.5-2.4-3.6-2.4-5.9c0-2.3,0.9-4.4,2.4-5.9c0.9-0.9,1.9-1.5,3.1-2c0.9-0.3,1.9-0.5,2.9-0.5
				C287.9,220.2,291.7,224,291.7,228.6z"/>
			<path fill="#19486A" d="M81.9,222.7v0.5c0.1-0.2,0.3-0.3,0.4-0.5H81.9z M81.9,234v0.5h0.4C82.2,234.3,82,234.2,81.9,234z"/>
			<path fill="#19486A" d="M96.6,228.6c0,2.3-0.9,4.4-2.4,5.9c-1.5,1.5-3.6,2.5-5.9,2.5c-0.5,0-0.9,0-1.4-0.1
				c-1.8-0.3-3.4-1.2-4.6-2.4c-0.1-0.1-0.3-0.3-0.4-0.5c-1.2-1.5-2-3.3-2-5.4c0-2.1,0.8-4,2-5.4c0.1-0.2,0.3-0.3,0.4-0.5
				c1.5-1.5,3.6-2.5,5.9-2.5c1.1,0,2.1,0.2,3,0.6c1.1,0.4,2.1,1.1,2.9,1.9C95.7,224.2,96.6,226.3,96.6,228.6z"/>
		</g>
	</g>
	
		<text transform="matrix(1 0 0 1 311.1017 332.1588)" fill="#19486A" font-family="'Calibri-Light'" font-size="48.1356" letter-spacing="4">Center</text>
</g>
</svg>
